<svg viewBox="0 0 32 32" xmlns="http://www.w3.org/2000/svg"><path d="m10 6c-3.855469 0-7 3.144531-7 7 0 .421875.074219.8125.148438 1.203125-.679688 1-1.148438 2.171875-1.148438 3.484375 0 3.445313 2.792969 6.246094 6.226563 6.296875 1.257812 1.199219 2.902343 2.015625 4.773437 2.015625 1.921875 0 3.597656-.859375 4.863281-2.113281.058594.003906.066407.007812.136719.007812 1.597656 0 2.898438-.871093 3.789063-2.054687.398437.070312.789062.160156 1.210937.160156 3.855469 0 7-3.144531 7-7s-3.144531-7-7-7c-.695312 0-1.335937.179688-1.96875.367188-1.144531-.824219-2.515625-1.367188-4.03125-1.367188-.945312 0-1.796875.3125-2.625.65625-1.203125-.988281-2.695312-1.65625-4.375-1.65625zm0 2c1.363281 0 2.582031.539063 3.484375 1.421875l.523438.507813.644531-.34375c.699219-.375 1.496094-.585938 2.347656-.585938 1.226563 0 2.339844.4375 3.207031 1.167969l.453125.378906.550782-.210937c.5625-.214844 1.160156-.335938 1.789062-.335938 2.773438 0 5 2.226563 5 5 0 2.773438-2.226562 5-5 5-.441406 0-.875-.066406-1.296875-.175781l-.777344-.210938-.367187.714844c-.488281.933594-1.4375 1.566406-2.558594 1.566406-.007812 0-.101562-.011718-.300781-.035156l-.527344-.050781-.34375.40625c-.917969 1.089844-2.285156 1.785156-3.828125 1.785156-1.492187 0-2.816406-.652344-3.734375-1.6875l-.316406-.355469-.472656.023438c-.214844.007812-.265625.019531-.164063.019531-2.394531 0-4.3125-1.917969-4.3125-4.3125 0-1.007812.359375-1.921875.953125-2.667969l.304688-.378906-.117188-.472656c-.089844-.386719-.140625-.773438-.140625-1.167969 0-2.773437 2.226563-5 5-5zm1.265625 5c-.019531 0-.035156.015625-.035156.039063v2.917968c0 .023438.015625.042969.035156.042969h.339844c.023437 0 .035156-.019531.035156-.042969v-2.917968c0-.019532-.015625-.039063-.035156-.039063zm5.933594 0c-.242188 0-.429688.066406-.5625.203125-.132813.132813-.226563.359375-.273438.625l-.023437.171875h-.300781s-.039063.011719-.042969.050781l-.050781.277344c-.003907.023438.007812.042969.042968.042969h.292969l-.292969 1.632812c-.023437.136719-.050781.246094-.082031.328125-.027344.082032-.054687.144532-.089844.1875-.035156.046875-.066406.078125-.121093.09375-.046875.015625-.097657.023438-.15625.023438-.03125 0-.074219-.003906-.105469-.011719-.03125-.007812-.046875-.011719-.074219-.023437 0 0-.03125-.011719-.046875.023437-.011719.027344-.089844.242188-.097656.265625-.007813.027344.003906.046875.019531.054688.039063.015625.070313.023437.125.035156.070313.019531.132813.019531.1875.019531.125 0 .234375-.019531.328125-.050781.09375-.035156.171875-.089844.246094-.167969.074219-.085937.125-.175781.171875-.296875s.082031-.273437.113281-.449219l.296875-1.664062h.4375s.039063 0 .046875-.042969l.046875-.273437c.003906-.027344-.007812-.054688-.042969-.054688h-.421875c.003907-.007812.03125-.265625.082032-.40625.019531-.058594.058593-.109375.089843-.140625.035157-.035156.074219-.058594.113282-.070312.042968-.011719.089843-.019532.144531-.019532.039062 0 .078125.003907.109375.011719.039062.007813.054687.011719.066406.015625.042969.011719.046875 0 .058594-.019531l.097656-.277344c.011719-.03125-.011719-.042969-.019531-.046875-.042969-.015625-.082031-.023437-.132813-.03125-.050781-.011719-.113281-.015625-.179687-.015625zm-9.175781 1c-.433594 0-.734375.242188-.734375.585938v.007812c0 .359375.332031.480469.644531.5625l.050781.015625c.226563.0625.421875.117188.421875.265625v.003906c0 .136719-.128906.234375-.332031.234375-.078125 0-.332031 0-.605469-.160156-.035156-.015625-.054687-.027344-.078125-.042969-.015625-.007812-.046875-.019531-.0625.019532l-.09375.238281c-.015625.035156.003906.042969.007813.050781.046875.027344.089843.046875.132812.070313.234375.113281.457031.148437.6875.148437.472656 0 .765625-.230469.765625-.605469v-.003906c0-.347656-.332031-.472656-.640625-.5625l-.039062-.011719c-.234375-.070312-.4375-.128906-.4375-.269531v-.011719c0-.121093.117187-.207031.300781-.207031.203125 0 .441406.058594.597656.140625 0 0 .046875.023438.0625-.015625.011719-.023437.089844-.21875.097656-.238281.007813-.023438-.007812-.039063-.023437-.046875-.175781-.101563-.421875-.167969-.675781-.167969zm1.964843 0c-.101562 0-.257812.011719-.355468.03125 0 0-.292969.050781-.414063.140625 0 0-.023437.011719-.007812.046875l.09375.234375c.011718.03125.042968.019531.042968.019531s.007813-.003906.019532-.007812c.257812-.132813.582031-.125.582031-.125.144531 0 .253906.023437.332031.078125.070313.050781.109375.132812.109375.296875v.050781c-.113281-.015625-.21875-.027344-.21875-.027344-.054687-.003906-.125-.003906-.210937-.003906-.113282 0-.222657.011719-.328125.039063-.105469.027343-.199219.066406-.277344.121093-.082031.054688-.144531.121094-.191406.203125-.050782.082032-.074219.179688-.074219.285157 0 .109375.019531.203125.058594.28125.042968.078125.101562.144531.175781.195312.074219.046875.167969.085938.269531.109375.105469.019531.226563.03125.355469.03125.136719 0 .273437-.011719.40625-.03125.132812-.019531.289062-.050781.335937-.0625.042969-.007812.089844-.019531.089844-.019531.035156-.007813.03125-.039063.03125-.039063v-1.128906c0-.25-.070312-.433594-.210937-.546875s-.347657-.171875-.613282-.171875zm3 0c-.164062 0-.316406.023438-.4375.078125-.121093.054688-.226562.128906-.304687.21875-.082031.089844-.144531.199219-.183594.320313-.039062.121093-.058594.253906-.058594.394531 0 .144531.023438.277344.0625.394531.039063.121094.105469.226563.195313.3125.085937.089844.195312.160156.332031.207031.132813.050782.296875.074219.484375.074219.386719-.003906.585938-.082031.671875-.125.011719-.007812.027344-.019531.011719-.058594l-.089844-.226562c-.011719-.035156-.050781-.023438-.050781-.023438-.097656.035157-.230469.09375-.546875.09375-.207031 0-.359375-.054687-.453125-.144531-.101563-.089844-.148438-.222656-.15625-.410156h1.332031s.035156 0 .039063-.03125c0-.015625.046875-.257813-.039063-.535156-.03125-.117188-.117187-.234375-.171875-.289063-.085937-.085937-.167969-.144531-.25-.175781-.109375-.046875-.242187-.074219-.386719-.074219zm1.902344 0c-.429687 0-.734375.242188-.734375.585938v.007812c0 .359375.335938.480469.644531.5625l.054688.015625c.226562.0625.421875.117188.421875.265625v.003906c0 .136719-.128906.234375-.335938.234375-.078125 0-.332031 0-.605468-.160156-.03125-.015625-.054688-.027344-.078125-.042969-.007813-.003906-.046875-.019531-.0625.019532l-.089844.238281c-.015625.035156.003906.042969.007812.050781.042969.027344.085938.046875.132813.070313.234375.113281.453125.148437.6875.148437.46875 0 .765625-.230469.765625-.605469v-.003906c0-.347656-.332031-.472656-.640625-.5625l-.042969-.011719c-.234375-.070312-.4375-.128906-.4375-.269531v-.011719c0-.121093.121094-.207031.300781-.207031.203125 0 .445313.058594.601563.140625 0 0 .046875.023438.0625-.015625.007812-.023437.085937-.21875.097656-.238281.007813-.023438-.007812-.039063-.027344-.046875-.175781-.101563-.421875-.167969-.675781-.167969zm3.269531 0c-.160156 0-.304687.027344-.425781.078125-.117187.050781-.21875.125-.296875.214844-.082031.089844-.144531.195312-.183594.316406-.035156.121094-.054687.253906-.054687.394531s.019531.273438.054687.390625c.039063.121094.101563.230469.183594.320313.078125.085937.179688.160156.300781.210937.121094.050782.261719.074219.421875.074219.160157 0 .300782-.023437.421875-.078125.121094-.050781.222657-.121094.304688-.210937.078125-.089844.140625-.195313.175781-.316407.039063-.121093.058594-.253906.058594-.394531 0-.136719-.019531-.269531-.058594-.390625-.035156-.121094-.097656-.226562-.175781-.316406-.082031-.089844-.183594-.164063-.304688-.214844-.121093-.050781-.261718-.078125-.421875-.078125zm3.484375 0c-.164062 0-.3125.027344-.441406.078125-.125.050781-.230469.125-.3125.214844-.085937.085937-.152344.195312-.191406.316406-.046875.117188-.066406.253906-.066406.390625 0 .304688.085937.550781.261718.730469.175782.179687.433594.269531.777344.269531.203125 0 .410156-.039062.558594-.09375 0 0 .027344-.011719.015625-.042969l-.097656-.246093c-.011719-.035157-.050782-.023438-.050782-.023438-.054687.023438-.117187.039063-.179687.046875-.066406.011719-.140625.015625-.21875.015625-.191406 0-.34375-.050781-.449219-.15625-.109375-.101562-.171875-.269531-.171875-.5.003906-.203125.054688-.359375.152344-.480469.097656-.117187.242187-.175781.4375-.175781.160156 0 .285156.019531.414062.054688 0 0 .035157.011718.046875-.023438.035157-.089844.0625-.152344.097657-.25.011718-.03125-.015625-.042969-.023438-.046875-.054687-.015625-.171875-.046875-.265625-.0625-.082031-.011719-.183594-.015625-.292969-.015625zm1.632813 0c-.164063 0-.316406.023438-.4375.078125-.125.054688-.226563.128906-.308594.21875s-.144531.199219-.183594.320313c-.035156.121093-.054687.253906-.054687.394531 0 .144531.019531.277344.0625.394531.039062.121094.101562.226563.191406.3125.089844.089844.199219.160156.332031.207031.136719.050782.300782.074219.484375.074219.386719-.003906.589844-.082031.671875-.125.015625-.007812.03125-.019531.011719-.058594l-.089844-.226562c-.011718-.035156-.050781-.023438-.050781-.023438-.09375.035157-.230469.09375-.546875.09375-.203125 0-.355469-.054687-.453125-.144531s-.144531-.222656-.15625-.410156h1.332031s.035157 0 .042969-.03125c0-.015625.042969-.257813-.042969-.535156-.03125-.117188-.117187-.234375-.171875-.289063-.085937-.085937-.167968-.144531-.25-.175781-.109375-.046875-.238281-.074219-.382812-.074219zm-2.890625 0c-.171875-.007812-.265625.019531-.347656.054688-.082032.035156-.171875.09375-.226563.160156v-.15625c0-.023438-.011719-.039063-.035156-.039063h-.339844c-.023437 0-.042969.015625-.042969.039063v1.902344c0 .019531.019532.039062.042969.039062h.347656c.023438 0 .042969-.019531.042969-.039062v-.949219c0-.128906.015625-.257813.042969-.339844.027344-.078125.066406-.140625.117187-.1875.050782-.042969.105469-.074219.167969-.09375.058594-.019531.128906-.023437.175781-.023437.070313 0 .148438.019531.148438.019531.023437 0 .039062-.015625.046875-.039063.023437-.054687.085937-.230468.097656-.265625.011719-.027343-.007812-.042968-.015625-.046875-.023437-.007812-.136719-.027343-.222656-.035156zm-7.429688.328125c.175782 0 .292969.0625.375.179688.054688.078125.078125.175781.089844.289062h-.953125c.019531-.117187.054688-.210937.109375-.289062.078125-.117188.203125-.179688.378906-.179688zm10.289063 0c.175781 0 .289062.0625.375.179688.054687.078125.078125.175781.085937.289062h-.949218c.019531-.117187.054687-.210937.105468-.289062.082032-.117188.207032-.179688.382813-.179688zm-5.085938.007813c.175782 0 .300782.054687.382813.171875.085937.117187.128906.28125.128906.492187 0 .214844-.042969.378906-.125.5-.085937.113281-.210937.171875-.386719.171875-.175781 0-.300781-.058594-.378906-.171875-.085937-.121094-.125-.285156-.125-.5 0-.210937.039063-.375.121094-.492187.082031-.113282.207031-.171875.382812-.171875zm-8.132812.710937c.191406.003906.363281.03125.363281.03125v.5625s-.171875.03125-.359375.042969c-.273437.011719-.394531-.074219-.390625-.074219-.054687-.039062-.058594-.050781-.078125-.074219-.027344-.039062-.039062-.089843-.039062-.160156 0-.109375.039062-.1875.117187-.238281 0 0 .113281-.09375.386719-.089844z"/></svg>